<?xml version="1.0" encoding="UTF-8"?>
<svg xmlns="http://www.w3.org/2000/svg" xmlns:xlink="http://www.w3.org/1999/xlink" viewBox="0 0 48 48" width="48px" height="48px">
<g id="surface593220">
<path style=" stroke:none;fill-rule:nonzero;fill:rgb(77.64706%,88.235295%,90.196079%);fill-opacity:1;" d="M 32.25 2 C 29.945312 2.132812 27.296875 3.417969 25.722656 5.054688 C 24.300781 6.542969 23.179688 8.753906 23.636719 10.890625 C 26.144531 10.957031 28.65625 9.636719 30.164062 7.972656 C 31.570312 6.414062 32.636719 4.238281 32.25 2 Z M 32.386719 10.886719 C 28.769531 10.886719 27.257812 13.109375 24.75 13.109375 C 22.171875 13.109375 19.816406 11.027344 16.695312 11.027344 C 12.453125 11.03125 6 14.960938 6 24.222656 C 6 32.648438 13.636719 42 17.945312 42 C 20.5625 42.027344 21.199219 40.355469 24.75 40.335938 C 28.304688 40.308594 29.074219 42.023438 31.695312 42 C 34.648438 41.976562 36.953125 38.734375 38.636719 36.164062 C 39.84375 34.324219 40.339844 33.382812 41.277344 31.304688 C 34.332031 29.542969 32.949219 18.34375 41.277344 16.027344 C 39.707031 13.34375 35.117188 10.886719 32.386719 10.886719 Z M 32.386719 10.886719 "/>
</g>
</svg>
